<?xml version="1.0" encoding="UTF-8" standalone="no"?>
<!-- Created with Inkscape (http://www.inkscape.org/) -->

<svg
   width="76.945946mm"
   height="30.447826mm"
   viewBox="0 0 76.945946 30.447826"
   version="1.1"
   id="svg1"
   xml:space="preserve"
   xmlns="http://www.w3.org/2000/svg"
   xmlns:svg="http://www.w3.org/2000/svg"><defs
     id="defs1"><linearGradient
       id="swatch4"><stop
         style="stop-color:#1c47e2;stop-opacity:1;"
         offset="0"
         id="stop4" /></linearGradient></defs><g
     id="layer1"
     transform="translate(-65.334681,-51.222523)"><rect
       style="fill:#0153a4;fill-opacity:1;stroke:#ffffff;stroke-width:0.239797;stroke-dasharray:none;stroke-opacity:1"
       id="rect6"
       width="28.066463"
       height="6.3837581"
       x="88.664642"
       y="70.620171"
       ry="1.1404541"
       rx="0" /><path
       style="fill:#0255a5;fill-opacity:1;stroke:#ffffff;stroke-width:0.264999;stroke-opacity:1"
       d="m 85.865274,55.909894 0.751252,20.883487 -16.975216,4.548354 c -1.81821,0.18534 -3.004914,-0.746794 -3.220263,-2.141738 L 65.483472,60.993398 c -0.112506,-1.104585 0.338887,-2.005134 1.472726,-2.945455 2.216608,-1.643883 8.181819,-6.545456 8.181819,-6.545456 1.189524,-0.527558 2.280296,0.432136 1.30909,1.718183 l -7.854545,5.236364 c -0.462703,0.680627 0.0036,1.86253 1.309092,1.636363 z"
       id="path2" /><path
       style="fill:#0153a4;fill-opacity:1;stroke-width:0.264999"
       d="m 81.935996,52.936585 -12.308477,5.930053 c -0.05891,0.259265 -0.04296,0.470889 0.318199,0.462833 l 12.351869,-4.932069 c 0.471607,-0.783008 0.323753,-1.256285 -0.361591,-1.460817 z"
       id="path3" /><path
       style="fill:#ffffff;fill-opacity:1;stroke:#0253a1;stroke-width:0.665;stroke-dasharray:none;stroke-opacity:1"
       d="m 74.284782,76.107188 3.008418,-1.995969 3.644813,7.029283 3.29769,-2.892711 -5.177952,-5.525074 2.89271,-1.967042 -8.56242,-5.004388 z"
       id="path4" /><text
       xml:space="preserve"
       style="font-weight:bold;font-size:8.73583px;font-family:Arial;-inkscape-font-specification:'Arial Bold';text-align:start;writing-mode:lr-tb;direction:ltr;text-anchor:start;fill:#585655;fill-opacity:1;stroke:#0253a1;stroke-width:0.510737;stroke-dasharray:none;stroke-opacity:1"
       x="97.004585"
       y="53.854153"
       id="text4"
       transform="scale(0.90574862,1.1040591)"><tspan
         id="tspan4"
         style="font-style:normal;font-variant:normal;font-weight:600;font-stretch:normal;font-family:Bahnschrift;-inkscape-font-specification:'Bahnschrift Semi-Bold';fill:#585655;fill-opacity:1;stroke:none;stroke-width:0.510737;stroke-dasharray:none"
         x="97.004585"
         y="53.854153">Libro de</tspan></text><text
       xml:space="preserve"
       style="font-weight:bold;font-size:8.91385px;font-family:Arial;-inkscape-font-specification:'Arial Bold';text-align:start;writing-mode:lr-tb;direction:ltr;text-anchor:start;fill:#4e4c4b;fill-opacity:1;stroke:none;stroke-width:0.521143;stroke-dasharray:none;stroke-opacity:1"
       x="94.036781"
       y="63.239567"
       id="text5"
       transform="scale(0.93483424,1.0697084)"><tspan
         id="tspan5"
         style="font-style:normal;font-variant:normal;font-weight:bold;font-stretch:normal;font-family:Bahnschrift;-inkscape-font-specification:'Bahnschrift Bold';fill:#4e4c4b;fill-opacity:1;stroke-width:0.521143"
         x="94.036781"
         y="63.239567">reclamaciones</tspan></text><path
       id="text6"
       style="font-weight:bold;font-size:4.46656px;font-family:Arial;-inkscape-font-specification:'Arial Bold';text-align:start;writing-mode:lr-tb;direction:ltr;text-anchor:start;fill:#eef6ff;fill-opacity:1;stroke:none;stroke-width:0.379512;stroke-dasharray:none;stroke-opacity:1"
       d="m 99.31695,71.685102 c -0.349304,0 -0.653954,0.0692 -0.913754,0.208283 -0.257611,0.137024 -0.458435,0.330194 -0.602524,0.579712 -0.144085,0.249518 -0.215795,0.542073 -0.215795,0.877489 v 1.316232 c 0,0.314964 0.07171,0.59114 0.215795,0.828386 0.146274,0.2352 0.350518,0.417935 0.612496,0.548828 0.264162,0.128856 0.571527,0.193236 0.923007,0.193236 0.349302,0 0.653305,-0.06808 0.910905,-0.205116 0.2598,-0.139077 0.46129,-0.333364 0.60538,-0.582881 0.14408,-0.251563 0.2165,-0.545237 0.2165,-0.880656 v -0.871151 h -1.650878 v 0.810172 h 0.720758 v 0.07366 c 0,0.247473 -0.073,0.440639 -0.219372,0.579714 -0.146267,0.137023 -0.340965,0.205116 -0.583293,0.205116 -0.246697,0 -0.444757,-0.06326 -0.595393,-0.190069 -0.150637,-0.128855 -0.226479,-0.298569 -0.226479,-0.509229 v -1.316231 c 0,-0.239291 0.07304,-0.431336 0.219353,-0.576547 0.146268,-0.145207 0.340966,-0.217785 0.583294,-0.217785 0.161551,0 0.313194,0.03982 0.455093,0.119583 0.14409,0.07771 0.240407,0.188994 0.288447,0.334204 h 0.96931 c -0.0568,-0.265877 -0.16606,-0.497742 -0.32761,-0.696129 -0.16156,-0.198386 -0.36173,-0.352855 -0.59968,-0.463296 -0.235786,-0.110429 -0.49738,-0.165517 -0.78556,-0.165519 z m -7.817122,0.04592 v 4.460304 h 0.452249 0.445126 0.674455 c 0.416981,0 0.764691,-0.06584 1.04195,-0.198782 0.279444,-0.134985 0.488439,-0.322207 0.62816,-0.561498 0.139722,-0.241337 0.2101,-0.520883 0.2101,-0.83789 v -1.26396 c 0,-0.507216 -0.163946,-0.899492 -0.491418,-1.177641 -0.325288,-0.280195 -0.787052,-0.42053 -1.385232,-0.42053 h -0.678015 -0.445126 z m 4.27036,0 v 4.460304 h 0.930136 v -4.460304 z m 6.117092,0 v 4.460304 h 0.93014 v -4.460304 z m 1.51985,0 V 72.5412 h 1.29691 v 3.650131 h 0.89666 V 72.5412 h 1.29691 v -0.810173 z m 5.08226,0 -1.82111,4.460304 h 0.96646 l 0.26709,-0.714347 h 1.74487 l 0.26709,0.714347 h 0.96575 l -1.82039,-4.460304 z m 2.97984,0 v 4.460304 h 0.39956 0.49783 2.29257 v -0.80938 h -2.29257 V 71.731027 Z M 92.397203,72.5412 h 0.697956 c 0.294725,0 0.522873,0.06584 0.684427,0.198782 0.161552,0.132947 0.242147,0.321284 0.242147,0.564665 v 1.313064 c 0,0.241337 -0.0806,0.429682 -0.242147,0.564666 -0.161554,0.132948 -0.389702,0.199574 -0.684427,0.199574 h -0.697956 z m 16.377057,0.604263 0.56906,1.521349 h -1.13811 z" /></g></svg>
